<?xml version="1.0" encoding="UTF-8" standalone="no"?><!DOCTYPE svg PUBLIC "-//W3C//DTD SVG 1.1//EN" "http://www.w3.org/Graphics/SVG/1.1/DTD/svg11.dtd"><!-- Generated by graphviz version 2.40.1 (20161225.0304)
 --><!-- Title: G Pages: 1 --><svg xmlns="http://www.w3.org/2000/svg" xmlns:xlink="http://www.w3.org/1999/xlink" width="330pt" height="854pt" viewBox="0.00 0.00 330.42 853.97">
<g id="graph0" class="graph" transform="scale(1 1) rotate(0) translate(4 849.9738)">
<title>G</title>
<polygon fill="#ffffff" stroke="transparent" points="-4,4 -4,-849.9738 326.4181,-849.9738 326.4181,4 -4,4"/>
<!-- 1 -->
<g id="node1" class="node">
<title>1</title>
<polygon fill="none" stroke="#000000" points="181.4725,-845.9738 124.8127,-845.9738 124.8127,-809.9738 181.4725,-809.9738 181.4725,-845.9738"/>
<text text-anchor="middle" x="153.1426" y="-823.7738" font-family="Times,serif" font-size="14.00" fill="#000000">1: Start</text>
</g>
<!-- 2 -->
<g id="node2" class="node">
<title>2</title>
<polygon fill="none" stroke="#000000" points="189.4199,-757.1738 116.8653,-757.1738 116.8653,-721.1738 189.4199,-721.1738 189.4199,-757.1738"/>
<text text-anchor="middle" x="153.1426" y="-734.9738" font-family="Times,serif" font-size="14.00" fill="#000000">2: init y, z</text>
</g>
<!-- 1&#45;&gt;2 -->
<g id="edge1" class="edge">
<title>1-&gt;2</title>
<path fill="none" stroke="#000000" d="M153.1426,-809.5744C153.1426,-797.4687 153.1426,-781.3814 153.1426,-767.6412"/>
<polygon fill="#000000" stroke="#000000" points="156.6427,-767.2458 153.1426,-757.2458 149.6427,-767.2459 156.6427,-767.2458"/>
<text text-anchor="middle" x="157.4189" y="-779.3738" font-family="Times,serif" font-size="14.00" fill="#000000">T</text>
</g>
<!-- 3 -->
<g id="node3" class="node">
<title>3</title>
<polygon fill="none" stroke="#000000" points="153.1426,-668.3738 102.1343,-650.3738 153.1426,-632.3738 204.1509,-650.3738 153.1426,-668.3738"/>
<text text-anchor="middle" x="153.1426" y="-646.1738" font-family="Times,serif" font-size="14.00" fill="#000000">3: y&lt;6</text>
</g>
<!-- 2&#45;&gt;3 -->
<g id="edge2" class="edge">
<title>2-&gt;3</title>
<path fill="none" stroke="#000000" d="M153.1426,-720.7744C153.1426,-708.6687 153.1426,-692.5814 153.1426,-678.8412"/>
<polygon fill="#000000" stroke="#000000" points="156.6427,-678.4458 153.1426,-668.4458 149.6427,-678.4459 156.6427,-678.4458"/>
<text text-anchor="middle" x="157.4189" y="-690.5738" font-family="Times,serif" font-size="14.00" fill="#000000">T</text>
</g>
<!-- 4 -->
<g id="node4" class="node">
<title>4</title>
<polygon fill="none" stroke="#000000" points="136.4281,-579.5738 -.1429,-579.5738 -.1429,-543.5738 136.4281,-543.5738 136.4281,-579.5738"/>
<text text-anchor="middle" x="68.1426" y="-557.3738" font-family="Times,serif" font-size="14.00" fill="#000000">4: sout("Some code")</text>
</g>
<!-- 3&#45;&gt;4 -->
<g id="edge3" class="edge">
<title>3-&gt;4</title>
<path fill="none" stroke="#000000" d="M140.2329,-636.887C127.7008,-623.7946 108.3539,-603.5828 92.8567,-587.3928"/>
<polygon fill="#000000" stroke="#000000" points="95.0482,-584.6206 85.605,-579.8168 89.9914,-589.461 95.0482,-584.6206"/>
<text text-anchor="middle" x="123.4189" y="-601.7738" font-family="Times,serif" font-size="14.00" fill="#000000">T</text>
</g>
<!-- 6 -->
<g id="node6" class="node">
<title>6</title>
<polygon fill="none" stroke="#000000" points="322.1942,-579.5738 154.091,-579.5738 154.091,-543.5738 322.1942,-543.5738 322.1942,-579.5738"/>
<text text-anchor="middle" x="238.1426" y="-557.3738" font-family="Times,serif" font-size="14.00" fill="#000000">6: sout("Some more code")</text>
</g>
<!-- 3&#45;&gt;6 -->
<g id="edge4" class="edge">
<title>3-&gt;6</title>
<path fill="none" stroke="#000000" d="M166.0523,-636.887C178.5844,-623.7946 197.9313,-603.5828 213.4285,-587.3928"/>
<polygon fill="#000000" stroke="#000000" points="216.2938,-589.461 220.6802,-579.8168 211.237,-584.6206 216.2938,-589.461"/>
<text text-anchor="middle" x="207.0339" y="-601.7738" font-family="Times,serif" font-size="14.00" fill="#000000">F</text>
</g>
<!-- 7 -->
<g id="node13" class="node">
<title>7</title>
<ellipse fill="none" stroke="#000000" cx="153.1426" cy="-472.7738" rx="27" ry="18"/>
<text text-anchor="middle" x="153.1426" y="-468.5738" font-family="Times,serif" font-size="14.00" fill="#000000">7</text>
</g>
<!-- 4&#45;&gt;7 -->
<g id="edge5" class="edge">
<title>4-&gt;7</title>
<path fill="none" stroke="#000000" d="M85.7547,-543.1744C99.0055,-529.3311 117.2401,-510.2814 131.4,-495.4885"/>
<polygon fill="#000000" stroke="#000000" points="133.9988,-497.835 138.3853,-488.1909 128.942,-492.9946 133.9988,-497.835"/>
<text text-anchor="middle" x="123.4189" y="-512.9738" font-family="Times,serif" font-size="14.00" fill="#000000">T</text>
</g>
<!-- 11 -->
<g id="node5" class="node">
<title>11</title>
<ellipse fill="none" stroke="#000000" cx="32.1426" cy="-20.6935" rx="20.8887" ry="20.8887"/>
<text text-anchor="middle" x="32.1426" y="-16.4935" font-family="Times,serif" font-size="14.00" fill="#000000">11</text>
</g>
<!-- 8.1 -->
<g id="node9" class="node">
<title>8.1</title>
<polygon fill="none" stroke="#000000" points="153.1426,-401.9738 78.1218,-383.9738 153.1426,-365.9738 228.1634,-383.9738 153.1426,-401.9738"/>
<text text-anchor="middle" x="153.1426" y="-379.7738" font-family="Times,serif" font-size="14.00" fill="#000000">8.1: z == 1</text>
</g>
<!-- 11&#45;&gt;8.1 -->
<g id="edge14" class="edge">
<title>11-&gt;8.1</title>
<path fill="none" stroke="#000000" d="M26.5466,-40.8665C21.9326,-59.2887 16.1426,-87.3539 16.1426,-112.1869 16.1426,-295.1738 16.1426,-295.1738 16.1426,-295.1738 16.1426,-337.8959 63.6346,-361.0936 102.6943,-372.9481"/>
<polygon fill="#000000" stroke="#000000" points="101.8323,-376.3418 112.409,-375.7225 103.7546,-369.6109 101.8323,-376.3418"/>
<text text-anchor="middle" x="20.4189" y="-199.4804" font-family="Times,serif" font-size="14.00" fill="#000000">T</text>
</g>
<!-- 6&#45;&gt;7 -->
<g id="edge6" class="edge">
<title>6-&gt;7</title>
<path fill="none" stroke="#000000" d="M220.5305,-543.1744C207.2797,-529.3311 189.0451,-510.2814 174.8852,-495.4885"/>
<polygon fill="#000000" stroke="#000000" points="177.3432,-492.9946 167.8999,-488.1909 172.2864,-497.835 177.3432,-492.9946"/>
<text text-anchor="middle" x="207.4189" y="-512.9738" font-family="Times,serif" font-size="14.00" fill="#000000">T</text>
</g>
<!-- 9 -->
<g id="node7" class="node">
<title>9</title>
<polygon fill="none" stroke="#000000" points="241.921,-221.6804 42.3642,-221.6804 42.3642,-185.6804 241.921,-185.6804 241.921,-221.6804"/>
<text text-anchor="middle" x="142.1426" y="-199.4804" font-family="Times,serif" font-size="14.00" fill="#000000">9: sout("Some while loop code")</text>
</g>
<!-- 10 -->
<g id="node8" class="node">
<title>10</title>
<polygon fill="none" stroke="#000000" points="137.0383,-130.1869 77.2469,-130.1869 77.2469,-94.1869 137.0383,-94.1869 137.0383,-130.1869"/>
<text text-anchor="middle" x="107.1426" y="-107.9869" font-family="Times,serif" font-size="14.00" fill="#000000">10: z++</text>
</g>
<!-- 9&#45;&gt;10 -->
<g id="edge12" class="edge">
<title>9-&gt;10</title>
<path fill="none" stroke="#000000" d="M135.2277,-185.6042C130.2422,-172.5716 123.4208,-154.7399 117.7492,-139.9137"/>
<polygon fill="#000000" stroke="#000000" points="120.8851,-138.3149 114.0431,-130.2255 114.3471,-140.816 120.8851,-138.3149"/>
<text text-anchor="middle" x="131.4189" y="-152.3869" font-family="Times,serif" font-size="14.00" fill="#000000">T</text>
</g>
<!-- 10&#45;&gt;11 -->
<g id="edge13" class="edge">
<title>10-&gt;11</title>
<path fill="none" stroke="#000000" d="M92.325,-94.1107C80.7987,-80.0497 64.6928,-60.4019 52.0428,-44.9699"/>
<polygon fill="#000000" stroke="#000000" points="54.4679,-42.4075 45.4215,-36.8926 49.0543,-46.8452 54.4679,-42.4075"/>
<text text-anchor="middle" x="81.4189" y="-63.5869" font-family="Times,serif" font-size="14.00" fill="#000000">T</text>
</g>
<!-- 8.2 -->
<g id="node10" class="node">
<title>8.2</title>
<polygon fill="none" stroke="#000000" points="153.1426,-313.1738 80.3988,-295.1738 153.1426,-277.1738 225.8864,-295.1738 153.1426,-313.1738"/>
<text text-anchor="middle" x="153.1426" y="-290.9738" font-family="Times,serif" font-size="14.00" fill="#000000">8.2: y != 4</text>
</g>
<!-- 8.1&#45;&gt;8.2 -->
<g id="edge8" class="edge">
<title>8.1-&gt;8.2</title>
<path fill="none" stroke="#000000" d="M153.1426,-365.5744C153.1426,-353.4687 153.1426,-337.3814 153.1426,-323.6412"/>
<polygon fill="#000000" stroke="#000000" points="156.6427,-323.2458 153.1426,-313.2458 149.6427,-323.2459 156.6427,-323.2458"/>
<text text-anchor="middle" x="157.4189" y="-335.3738" font-family="Times,serif" font-size="14.00" fill="#000000">T</text>
</g>
<!-- 12 -->
<g id="node11" class="node">
<title>12</title>
<ellipse fill="none" stroke="#000000" cx="280.1426" cy="-203.6804" rx="20.8887" ry="20.8887"/>
<text text-anchor="middle" x="280.1426" y="-199.4804" font-family="Times,serif" font-size="14.00" fill="#000000">12</text>
</g>
<!-- 8.1&#45;&gt;12 -->
<g id="edge9" class="edge">
<title>8.1-&gt;12</title>
<path fill="none" stroke="#000000" d="M173.4055,-370.6543C191.6367,-357.7935 218.103,-336.8284 235.1426,-313.1738 252.6175,-288.9148 264.7631,-256.8697 271.9933,-233.7209"/>
<polygon fill="#000000" stroke="#000000" points="275.3637,-234.6664 274.8816,-224.0825 268.6583,-232.657 275.3637,-234.6664"/>
<text text-anchor="middle" x="259.0339" y="-290.9738" font-family="Times,serif" font-size="14.00" fill="#000000">F</text>
</g>
<!-- 8.2&#45;&gt;9 -->
<g id="edge11" class="edge">
<title>8.2-&gt;9</title>
<path fill="none" stroke="#000000" d="M151.0217,-277.533C149.4744,-264.663 147.3445,-246.9476 145.5586,-232.0935"/>
<polygon fill="#000000" stroke="#000000" points="149.001,-231.404 144.3323,-221.8933 142.0511,-232.2396 149.001,-231.404"/>
<text text-anchor="middle" x="153.4189" y="-246.5738" font-family="Times,serif" font-size="14.00" fill="#000000">T</text>
</g>
<!-- 8.2&#45;&gt;12 -->
<g id="edge10" class="edge">
<title>8.2-&gt;12</title>
<path fill="none" stroke="#000000" d="M171.8819,-281.6736C193.7587,-265.9131 230.057,-239.7631 254.526,-222.1351"/>
<polygon fill="#000000" stroke="#000000" points="256.8892,-224.7463 262.957,-216.0612 252.7974,-219.0667 256.8892,-224.7463"/>
<text text-anchor="middle" x="228.0339" y="-246.5738" font-family="Times,serif" font-size="14.00" fill="#000000">F</text>
</g>
<!-- 13 -->
<g id="node12" class="node">
<title>13</title>
<polygon fill="none" stroke="#000000" points="310.0858,-130.1869 250.1994,-130.1869 250.1994,-94.1869 310.0858,-94.1869 310.0858,-130.1869"/>
<text text-anchor="middle" x="280.1426" y="-107.9869" font-family="Times,serif" font-size="14.00" fill="#000000">13: End</text>
</g>
<!-- 12&#45;&gt;13 -->
<g id="edge15" class="edge">
<title>12-&gt;13</title>
<path fill="none" stroke="#000000" d="M280.1426,-182.9191C280.1426,-170.4384 280.1426,-154.3788 280.1426,-140.7174"/>
<polygon fill="#000000" stroke="#000000" points="283.6427,-140.3895 280.1426,-130.3896 276.6427,-140.3896 283.6427,-140.3895"/>
<text text-anchor="middle" x="284.4189" y="-152.3869" font-family="Times,serif" font-size="14.00" fill="#000000">T</text>
</g>
<!-- 7&#45;&gt;8.1 -->
<g id="edge7" class="edge">
<title>7-&gt;8.1</title>
<path fill="none" stroke="#000000" d="M153.1426,-454.3744C153.1426,-442.2687 153.1426,-426.1814 153.1426,-412.4412"/>
<polygon fill="#000000" stroke="#000000" points="156.6427,-412.0458 153.1426,-402.0458 149.6427,-412.0459 156.6427,-412.0458"/>
<text text-anchor="middle" x="157.4189" y="-424.1738" font-family="Times,serif" font-size="14.00" fill="#000000">T</text>
</g>
</g>
</svg>